<?xml version="1.0" encoding="iso-8859-1"?>
<!-- Generator: Adobe Illustrator 16.0.0, SVG Export Plug-In . SVG Version: 6.00 Build 0)  -->
<!DOCTYPE svg PUBLIC "-//W3C//DTD SVG 1.1//EN" "http://www.w3.org/Graphics/SVG/1.1/DTD/svg11.dtd">
<svg xmlns="http://www.w3.org/2000/svg" xmlns:xlink="http://www.w3.org/1999/xlink" version="1.1" id="Capa_1" x="0px" y="0px" width="512px" height="512px" viewBox="0 0 985.901 985.9" style="enable-background:new 0 0 985.901 985.9;" xml:space="preserve">
<g>
	<path d="M494.65,727.1c-17.1,0-34-1.399-50.5-4.1l-30.2,60.4c26.3,5.699,53.3,8.6,80.8,8.6s54.4-2.9,80.801-8.6l-30.2-60.4   C528.65,725.7,511.75,727.1,494.65,727.1z" fill="#FFFFFF"/>
	<path d="M880.45,305.7h-22.8c-4-13.4-8.7-26.5-14.2-39.5c-4-9.5-8.399-18.8-13.1-27.8l15.8-15.8c11.7-11.7,11.7-30.7,0-42.4   L732.75,66.9c-11.699-11.7-30.699-11.7-42.399,0l-14.3,14.3c-11-6-22.301-11.5-34-16.4c-12.2-5.2-24.601-9.7-37.2-13.5V30   c0-16.6-13.4-30-30-30h-160.3c-16.601,0-30,13.4-30,30v21.3c-12.601,3.8-25,8.3-37.2,13.5c-12.4,5.3-24.5,11.2-36.2,17.7   l-15.6-15.6c-11.7-11.7-30.7-11.7-42.4,0l-113.4,113.3c-11.7,11.7-11.7,30.7,0,42.4l18.1,18.1c-4.3,8.3-8.3,16.9-12,25.6   c-5.9,14.1-11,28.4-15.2,42.9h-25.3c-16.6,0-30,13.4-30,30v160.2c0,16.6,13.4,30,30,30h28.8c3.4,10.6,7.3,21.1,11.7,31.5   c4.5,10.5,9.4,20.8,14.7,30.8l-20.8,20.8c-11.7,11.7-11.7,30.7,0,42.4l98.9,98.899l51.6-102.5l100.6-101.2l-189.4,379   c-9.3,20-0.6,43.801,19.4,53.101c5.5,2.5,11.2,3.7,16.8,3.7c15.1,0,29.5-8.601,36.3-23.101l201.5-403.1   c6.3,0.899,12.7,1.3,19.3,1.3c6.601,0,13-0.5,19.301-1.3l201.5,403.1c6.8,14.601,21.199,23.101,36.3,23.101   c5.6,0,11.399-1.2,16.8-3.7c20-9.3,28.7-33.101,19.4-53.101l-189.4-379l101,101.9l49.8,99.6L846.05,655   c11.699-11.7,11.699-30.7,0-42.4l-18.5-18.6c5.8-10.7,11.1-21.7,15.899-33.1c4.9-11.5,9.101-23.2,12.8-35h24.301   c16.6,0,30-13.4,30-30V335.7C910.45,319.2,897.05,305.7,880.45,305.7z M629.45,395.8c-4.399-21.7-14-41.5-27.3-58.2l129.1-129.9   c45.9,52.6,72.601,118.2,76.5,188.1H629.45z M181.65,395.8c3.9-69.9,30.6-135.4,76.5-188.1l129.1,129.9   c-13.3,16.7-22.899,36.5-27.3,58.2H181.65z M703.05,179.3l-130.2,131c-17-11.8-36.8-19.8-58.2-22.9V100.7   C584.85,105.1,650.55,132.5,703.05,179.3z M474.65,100.7v186.8c-21.4,3.1-41.2,11.1-58.2,22.9l-130.2-131   C338.75,132.5,404.45,105.1,474.65,100.7z M261.65,623.4c-47.1-52.2-74.9-117.601-79.7-187.5h175.7c2.2,24.6,10.8,47.399,24.3,66.6   L261.65,623.4z M631.65,435.8h175.7c-4.9,69.9-32.7,135.4-79.7,187.5l-120.2-121C620.85,483.2,629.55,460.5,631.65,435.8z" fill="#FFFFFF"/>
</g>
<g>
</g>
<g>
</g>
<g>
</g>
<g>
</g>
<g>
</g>
<g>
</g>
<g>
</g>
<g>
</g>
<g>
</g>
<g>
</g>
<g>
</g>
<g>
</g>
<g>
</g>
<g>
</g>
<g>
</g>
</svg>
